<?xml version="1.0" standalone="no"?>
<!DOCTYPE svg PUBLIC "-//W3C//DTD SVG 20010904//EN"
 "http://www.w3.org/TR/2001/REC-SVG-20010904/DTD/svg10.dtd">
<svg version="1.0" xmlns="http://www.w3.org/2000/svg"
 width="500.000000pt" height="188.000000pt" viewBox="0 0 500.000000 188.000000"
 preserveAspectRatio="xMidYMid meet">

<g transform="translate(0.000000,188.000000) scale(0.100000,-0.100000)"
fill="#000000" stroke="none">
<path d="M793 1535 c-161 -35 -313 -154 -383 -299 -49 -102 -65 -183 -57 -291
6 -82 37 -182 76 -245 62 -102 170 -190 289 -238 62 -25 78 -27 207 -26 l140
1 80 40 c72 37 82 39 97 26 11 -10 28 -14 46 -10 24 5 30 2 39 -24 20 -52 64
-50 91 5 11 23 11 34 -1 71 -14 41 -14 44 5 62 39 35 42 53 13 83 -26 27 -26
28 -10 60 58 112 70 239 35 374 -28 109 -63 169 -150 256 -141 142 -324 197
-517 155z m262 -20 c145 -38 281 -150 349 -285 l37 -75 -25 -3 c-30 -4 -76 19
-131 63 -60 48 -107 75 -134 75 -15 0 -45 -22 -89 -65 -67 -67 -114 -90 -161
-78 -39 9 -70 33 -87 65 -14 27 -14 32 2 49 20 22 12 38 -11 19 -13 -11 -15
-8 -15 24 0 50 -24 104 -66 147 l-36 37 49 15 c72 23 81 25 173 26 49 0 111
-6 145 -14z m-347 -70 c40 -33 60 -79 65 -148 8 -100 69 -167 152 -167 50 0
96 27 156 91 62 66 82 65 176 -7 72 -56 127 -83 169 -84 23 0 34 -36 34 -117
l0 -41 -30 15 c-45 22 -89 3 -148 -64 -43 -49 -53 -55 -76 -49 -23 6 -24 9
-14 26 10 16 9 23 -12 45 -30 32 -47 32 -83 -2 -25 -24 -30 -26 -40 -13 -15
18 -105 12 -131 -9 -27 -23 -20 -55 18 -73 28 -14 33 -21 29 -42 -10 -51 38
-73 86 -40 18 13 28 14 48 5 13 -6 23 -15 21 -21 -2 -5 -25 -36 -53 -70 -46
-56 -53 -60 -81 -55 -22 4 -38 0 -55 -14 l-24 -20 64 -65 64 -65 -29 -8 c-49
-13 -186 -7 -249 11 -70 20 -163 71 -219 119 l-38 34 17 27 c11 17 19 49 20
84 3 103 20 122 111 122 54 0 109 21 123 48 34 63 -8 132 -79 132 -83 0 -140
44 -140 107 0 30 3 33 29 33 17 0 33 5 36 10 4 6 -6 10 -24 10 -29 0 -29 1
-20 32 12 44 -6 95 -42 117 l-29 18 33 30 c40 37 108 83 124 83 6 0 25 -11 41
-25z m-166 -135 c33 -33 34 -50 8 -140 -26 -91 25 -146 144 -155 57 -4 76 -22
76 -68 0 -62 -49 -93 -97 -62 -14 9 -28 14 -31 10 -4 -3 -1 -10 7 -14 8 -5 -2
-11 -29 -15 -63 -10 -90 -43 -90 -109 0 -57 -16 -117 -31 -117 -18 0 -89 124
-110 189 -35 113 -26 265 21 375 24 57 77 136 91 136 6 0 24 -14 41 -30z m900
-347 c11 -10 18 -30 18 -53 0 -43 -11 -55 -237 -244 l-143 -119 6 -37 c10 -63
-12 -59 -85 14 -54 54 -63 68 -51 76 8 6 29 8 46 5 30 -5 37 2 183 174 84 98
162 183 174 189 33 16 68 14 89 -5z m-280 -20 c38 -35 16 -60 -38 -43 l-36 12
23 24 c27 29 27 29 51 7z m-64 -49 c63 -20 112 -41 112 -48 0 -7 -15 -27 -33
-44 l-33 -32 -112 55 c-62 30 -112 59 -112 64 0 9 46 40 61 41 3 0 56 -16 117
-36z m-67 -90 c29 -15 30 -16 12 -29 -23 -19 -38 -18 -53 0 -11 14 -8 45 5 45
3 0 20 -7 36 -16z m377 -51 c-28 -55 -43 -63 -52 -29 -5 21 1 32 31 60 46 42
53 31 21 -31z m-31 -138 c35 -107 37 -118 23 -142 -27 -48 -38 -39 -95 79
l-54 113 37 32 c20 18 40 33 44 33 4 0 24 -52 45 -115z m48 65 c18 -20 18 -21
-6 -46 l-24 -25 -11 33 c-8 22 -8 37 -1 46 13 17 21 15 42 -8z m-174 -53 c16
-35 -20 -88 -82 -121 -28 -16 -52 -26 -55 -24 -2 3 -6 18 -9 34 -4 26 2 35 58
81 34 29 65 53 70 53 4 0 12 -10 18 -23z m42 -118 c-14 -14 -41 -5 -49 16 -4
9 2 25 12 36 18 21 19 20 33 -10 11 -23 12 -34 4 -42z"/>
<path d="M817 1436 c-11 -28 4 -47 32 -44 20 2 26 8 26 28 0 20 -6 26 -26 28
-17 2 -29 -3 -32 -12z m43 -16 c0 -21 -15 -27 -25 -10 -7 12 2 30 16 30 5 0 9
-9 9 -20z"/>
<path d="M840 1348 c0 -19 2 -20 10 -8 13 19 13 30 0 30 -5 0 -10 -10 -10 -22z"/>
<path d="M1255 1336 c-22 -16 -15 -50 11 -54 25 -4 47 19 38 41 -8 22 -29 28
-49 13z m31 -17 c10 -17 -13 -36 -27 -22 -12 12 -4 33 11 33 5 0 12 -5 16 -11z"/>
<path d="M1161 1229 c-13 -11 -21 -23 -17 -26 4 -4 19 5 34 20 31 31 19 36
-17 6z"/>
<path d="M693 1210 c-13 -5 -23 -12 -23 -16 0 -8 53 5 65 17 12 12 -12 11 -42
-1z"/>
<path d="M1086 1148 c-17 -24 -20 -38 -8 -38 4 0 15 14 24 30 20 35 7 41 -16
8z"/>
<path d="M1048 1064 c-5 -4 -8 -21 -7 -38 0 -30 0 -30 10 -7 11 27 8 57 -3 45z"/>
<path d="M737 790 c9 -16 21 -30 25 -30 12 0 10 8 -8 35 -23 36 -39 31 -17 -5z"/>
<path d="M937 722 c-26 -16 -36 -32 -19 -32 12 1 57 38 52 44 -3 2 -18 -3 -33
-12z"/>
<path d="M800 722 c0 -10 44 -32 63 -32 7 0 -3 9 -21 20 -36 22 -42 24 -42 12z"/>
<path d="M469 1150 c-13 -10 -20 -19 -16 -20 11 0 67 29 67 35 0 12 -30 3 -51
-15z"/>
<path d="M416 1072 c-4 -18 -5 -36 -2 -39 11 -12 17 5 14 39 l-3 33 -9 -33z"/>
<path d="M430 959 c7 -11 14 -19 16 -16 7 7 -7 37 -17 37 -6 0 -5 -9 1 -21z"/>
<path d="M433 904 c-15 -39 38 -67 60 -32 8 12 7 21 -2 32 -17 21 -50 20 -58
0z m47 -19 c0 -8 -7 -15 -15 -15 -8 0 -15 7 -15 15 0 8 7 15 15 15 8 0 15 -7
15 -15z"/>
<path d="M537 913 c-30 -8 -10 -19 27 -15 20 2 33 8 30 13 -5 9 -26 10 -57 2z"/>
<path d="M2687 1414 c-4 -4 -7 -125 -8 -268 0 -233 -2 -256 -14 -218 -20 64
-61 111 -122 139 -111 51 -263 22 -331 -63 l-27 -33 -12 75 c-7 41 -24 96 -37
123 -35 69 -110 139 -186 175 -63 30 -69 31 -232 34 l-168 4 0 -396 0 -396
123 0 c68 0 150 5 182 11 108 20 208 87 267 178 15 25 28 38 28 30 0 -67 68
-162 145 -201 56 -29 156 -35 228 -14 42 12 70 29 105 62 l47 46 -60 30 -61
30 -38 -26 c-80 -54 -196 -17 -196 63 0 20 5 21 180 21 l180 0 0 -115 0 -116
83 3 82 3 0 410 0 410 -75 3 c-42 1 -79 0 -83 -4z m-820 -215 c136 -65 162
-281 46 -391 -37 -35 -93 -58 -143 -58 l-40 0 0 241 0 241 48 -7 c26 -3 66
-15 89 -26z m604 -219 c21 -12 53 -67 41 -73 -4 -3 -47 -4 -97 -3 -84 1 -90 2
-87 21 8 51 91 83 143 55z"/>
<path d="M2890 1005 l0 -415 80 0 80 0 0 153 c0 167 5 183 60 212 42 22 66 19
102 -14 l33 -29 3 -161 4 -161 79 0 79 0 0 83 0 82 26 -45 c36 -64 53 -80 109
-106 83 -39 183 -27 242 28 l23 21 0 -31 0 -32 330 0 330 0 0 65 0 65 -110 0
c-60 0 -110 2 -110 5 0 3 49 78 108 168 60 89 112 168 116 175 6 9 -44 12
-233 12 l-241 0 0 -60 0 -60 100 0 c55 0 100 -3 100 -7 0 -5 -50 -82 -110
-173 l-110 -165 0 233 0 232 -85 0 c-78 0 -85 -2 -85 -20 0 -18 -2 -18 -49 7
-39 20 -64 25 -114 25 -99 -1 -172 -47 -215 -136 l-19 -39 -7 37 c-15 79 -99
136 -203 137 -44 1 -64 -5 -104 -30 l-49 -30 0 194 0 195 -80 0 -80 0 0 -415z
m877 -71 c30 -19 45 -50 47 -95 1 -46 -17 -81 -54 -102 -86 -51 -187 13 -177
111 10 91 105 135 184 86z"/>
</g>
</svg>
